<mxfile host="Electron" modified="2024-01-27T03:25:23.905Z" agent="Mozilla/5.0 (Windows NT 10.0; Win64; x64) AppleWebKit/537.36 (KHTML, like Gecko) draw.io/22.1.21 Chrome/120.0.6099.109 Electron/28.1.0 Safari/537.36" etag="VYuFu7Fj2CDwXnw6XsZH" version="22.1.21" type="device">
  <diagram name="Page-1" id="CexEC6ow1VSO5VtE6Au_">
    <mxGraphModel dx="1420" dy="821" grid="1" gridSize="10" guides="1" tooltips="1" connect="1" arrows="1" fold="1" page="1" pageScale="1" pageWidth="850" pageHeight="1100" math="0" shadow="0">
      <root>
        <mxCell id="0" />
        <mxCell id="1" parent="0" />
        <mxCell id="KhD5GfdqzPic-pQhPlFO-16" style="edgeStyle=orthogonalEdgeStyle;rounded=0;orthogonalLoop=1;jettySize=auto;html=1;entryX=0.5;entryY=0;entryDx=0;entryDy=0;fillColor=#60a917;strokeColor=#2D7600;" edge="1" parent="1" source="_01hCskPj3Q0tYz4RAGB-1" target="KhD5GfdqzPic-pQhPlFO-8">
          <mxGeometry relative="1" as="geometry" />
        </mxCell>
        <mxCell id="_01hCskPj3Q0tYz4RAGB-1" value="&lt;font style=&quot;font-size: 23px;&quot;&gt;Start&lt;/font&gt;" style="ellipse;whiteSpace=wrap;html=1;" parent="1" vertex="1">
          <mxGeometry x="379" y="90" width="122" height="30" as="geometry" />
        </mxCell>
        <mxCell id="KhD5GfdqzPic-pQhPlFO-22" style="edgeStyle=orthogonalEdgeStyle;rounded=0;orthogonalLoop=1;jettySize=auto;html=1;" edge="1" parent="1" source="KhD5GfdqzPic-pQhPlFO-2">
          <mxGeometry relative="1" as="geometry">
            <mxPoint x="440" y="160" as="targetPoint" />
            <Array as="points">
              <mxPoint x="450" y="810" />
              <mxPoint x="111" y="810" />
            </Array>
          </mxGeometry>
        </mxCell>
        <mxCell id="KhD5GfdqzPic-pQhPlFO-2" value="L298N Driver" style="rounded=0;whiteSpace=wrap;html=1;fillColor=#6a00ff;fontColor=#ffffff;strokeColor=#3700CC;" vertex="1" parent="1">
          <mxGeometry x="280" y="580" width="340" height="180" as="geometry" />
        </mxCell>
        <mxCell id="KhD5GfdqzPic-pQhPlFO-1" value="PWM Driver" style="rounded=0;whiteSpace=wrap;html=1;fillColor=#60a917;fontColor=#ffffff;strokeColor=#2D7600;" vertex="1" parent="1">
          <mxGeometry x="280" y="700" width="131" height="60" as="geometry" />
        </mxCell>
        <mxCell id="KhD5GfdqzPic-pQhPlFO-3" value="PWM Driver" style="rounded=0;whiteSpace=wrap;html=1;fillColor=#60a917;fontColor=#ffffff;strokeColor=#2D7600;" vertex="1" parent="1">
          <mxGeometry x="489" y="700" width="131" height="60" as="geometry" />
        </mxCell>
        <mxCell id="KhD5GfdqzPic-pQhPlFO-6" value="" style="edgeStyle=orthogonalEdgeStyle;rounded=0;orthogonalLoop=1;jettySize=auto;html=1;dashed=1;" edge="1" parent="1" source="KhD5GfdqzPic-pQhPlFO-4" target="KhD5GfdqzPic-pQhPlFO-1">
          <mxGeometry relative="1" as="geometry">
            <Array as="points">
              <mxPoint x="251" y="660" />
              <mxPoint x="346" y="660" />
            </Array>
          </mxGeometry>
        </mxCell>
        <mxCell id="KhD5GfdqzPic-pQhPlFO-7" style="edgeStyle=orthogonalEdgeStyle;rounded=0;orthogonalLoop=1;jettySize=auto;html=1;exitX=0.5;exitY=1;exitDx=0;exitDy=0;dashed=1;" edge="1" parent="1" source="KhD5GfdqzPic-pQhPlFO-4" target="KhD5GfdqzPic-pQhPlFO-3">
          <mxGeometry relative="1" as="geometry">
            <Array as="points">
              <mxPoint x="251" y="660" />
              <mxPoint x="555" y="660" />
            </Array>
          </mxGeometry>
        </mxCell>
        <mxCell id="KhD5GfdqzPic-pQhPlFO-4" value="PiGPIO Dameon" style="rounded=0;whiteSpace=wrap;html=1;" vertex="1" parent="1">
          <mxGeometry x="140" y="620" width="121" height="30" as="geometry" />
        </mxCell>
        <mxCell id="KhD5GfdqzPic-pQhPlFO-14" style="edgeStyle=orthogonalEdgeStyle;rounded=0;orthogonalLoop=1;jettySize=auto;html=1;exitX=0.5;exitY=1;exitDx=0;exitDy=0;entryX=0.5;entryY=0;entryDx=0;entryDy=0;" edge="1" parent="1" source="KhD5GfdqzPic-pQhPlFO-17" target="KhD5GfdqzPic-pQhPlFO-25">
          <mxGeometry relative="1" as="geometry" />
        </mxCell>
        <mxCell id="KhD5GfdqzPic-pQhPlFO-15" value="&lt;font style=&quot;font-size: 15px;&quot;&gt;X and Y Coordinates of Joystick&lt;/font&gt;" style="edgeLabel;html=1;align=center;verticalAlign=middle;resizable=0;points=[];" vertex="1" connectable="0" parent="KhD5GfdqzPic-pQhPlFO-14">
          <mxGeometry x="-0.2156" y="2" relative="1" as="geometry">
            <mxPoint as="offset" />
          </mxGeometry>
        </mxCell>
        <mxCell id="KhD5GfdqzPic-pQhPlFO-13" value="Controller" style="rounded=0;whiteSpace=wrap;html=1;fillColor=#1ba1e2;fontColor=#ffffff;strokeColor=#006EAF;" vertex="1" parent="1">
          <mxGeometry x="260" y="200" width="370" height="180" as="geometry" />
        </mxCell>
        <mxCell id="KhD5GfdqzPic-pQhPlFO-18" value="" style="edgeStyle=orthogonalEdgeStyle;rounded=0;orthogonalLoop=1;jettySize=auto;html=1;" edge="1" parent="1" source="KhD5GfdqzPic-pQhPlFO-8" target="KhD5GfdqzPic-pQhPlFO-17">
          <mxGeometry relative="1" as="geometry" />
        </mxCell>
        <mxCell id="KhD5GfdqzPic-pQhPlFO-8" value="Bluetooth" style="rounded=0;whiteSpace=wrap;html=1;fillColor=#d80073;fontColor=#ffffff;strokeColor=#A50040;" vertex="1" parent="1">
          <mxGeometry x="355.25" y="200" width="169.5" height="50" as="geometry" />
        </mxCell>
        <mxCell id="KhD5GfdqzPic-pQhPlFO-17" value="Update button/joystick/trigger status" style="rounded=0;whiteSpace=wrap;html=1;fillColor=#fa6800;fontColor=#000000;strokeColor=#C73500;" vertex="1" parent="1">
          <mxGeometry x="379" y="310" width="120" height="60" as="geometry" />
        </mxCell>
        <mxCell id="KhD5GfdqzPic-pQhPlFO-27" style="edgeStyle=orthogonalEdgeStyle;rounded=0;orthogonalLoop=1;jettySize=auto;html=1;entryX=1;entryY=0.5;entryDx=0;entryDy=0;" edge="1" parent="1" source="KhD5GfdqzPic-pQhPlFO-25" target="KhD5GfdqzPic-pQhPlFO-1">
          <mxGeometry relative="1" as="geometry" />
        </mxCell>
        <mxCell id="KhD5GfdqzPic-pQhPlFO-28" style="edgeStyle=orthogonalEdgeStyle;rounded=0;orthogonalLoop=1;jettySize=auto;html=1;exitX=0.5;exitY=1;exitDx=0;exitDy=0;entryX=0;entryY=0.5;entryDx=0;entryDy=0;" edge="1" parent="1" source="KhD5GfdqzPic-pQhPlFO-25" target="KhD5GfdqzPic-pQhPlFO-3">
          <mxGeometry relative="1" as="geometry" />
        </mxCell>
        <mxCell id="KhD5GfdqzPic-pQhPlFO-25" value="Set mmotor directions and speeds" style="whiteSpace=wrap;html=1;fillColor=#e51400;fontColor=#ffffff;strokeColor=#B20000;" vertex="1" parent="1">
          <mxGeometry x="401" y="590" width="100" height="40" as="geometry" />
        </mxCell>
      </root>
    </mxGraphModel>
  </diagram>
</mxfile>
